<svg xmlns="http://www.w3.org/2000/svg" viewBox="0 0 64 64">
  <defs>
    <linearGradient id="sideSeatGradient" x1="8" y1="8" x2="56" y2="56" gradientUnits="userSpaceOnUse">
      <stop stop-color="#38f28f"/>
      <stop offset="1" stop-color="#08a85a"/>
    </linearGradient>
  </defs>
  <rect width="64" height="64" rx="18" fill="#07110d"/>
  <path d="M45.5 18.5C42.2 15.5 37.8 14 32.4 14c-8.1 0-14 4.2-14 10.8 0 6.8 5.8 9.1 12.7 10.6 5.3 1.2 7.3 2.1 7.3 4.6 0 2.4-2.3 4-6.2 4-4.6 0-8.7-1.7-12.4-5.1L15 44.7C19.5 49 25.1 51 31.9 51 40.6 51 47 46.6 47 39.6c0-6.6-5-9.2-12.8-11-5.4-1.2-7.4-2-7.4-4.4 0-2.1 2.1-3.5 5.4-3.5 3.8 0 7.2 1.3 10.2 3.9l3.1-6.1Z" fill="url(#sideSeatGradient)"/>
  <circle cx="49" cy="15" r="4" fill="#b8ffd5"/>
</svg>
